<svg width="26" height="26" viewBox="0 0 26 26" fill="none" xmlns="http://www.w3.org/2000/svg">
<path d="M13 25C19.6274 25 25 19.6274 25 13C25 6.37258 19.6274 1 13 1C6.37258 1 1 6.37258 1 13C1 19.6274 6.37258 25 13 25Z" stroke="#161616" stroke-width="2" stroke-linecap="round" stroke-linejoin="round"/>
<path d="M24.7 14.0079C20.5 12.8919 16.744 13.0239 13.972 14.0079C10.876 15.1119 7.96005 17.4399 5.04405 21.5919M8.87205 1.8999C14.116 9.1359 16.096 13.2039 18.508 23.1639L8.87205 1.8999ZM21.556 4.7079C17.092 9.9279 10.828 11.4999 1.30005 11.7279L21.556 4.7079Z" stroke="#161616" stroke-width="2" stroke-linecap="round" stroke-linejoin="round"/>
</svg>
