<svg width="6" height="107" viewBox="0 0 6 107" fill="none" xmlns="http://www.w3.org/2000/svg">
<path d="M5.5 3C5.5 1.61929 4.38071 0.5 3 0.5C1.61929 0.5 0.5 1.61929 0.5 3L5.5 3ZM0.500005 107C0.500005 108.381 1.61929 109.5 3 109.5C4.38072 109.5 5.5 108.381 5.5 107L0.500005 107ZM0.5 8.2C0.5 9.58071 1.61929 10.7 3 10.7C4.38071 10.7 5.5 9.58071 5.5 8.2L0.5 8.2ZM5.5 18.6C5.5 17.2193 4.38071 16.1 3 16.1C1.61929 16.1 0.500001 17.2193 0.500001 18.6L5.5 18.6ZM0.500001 29C0.500001 30.3807 1.61929 31.5 3 31.5C4.38071 31.5 5.5 30.3807 5.5 29L0.500001 29ZM5.5 39.4C5.5 38.0193 4.38071 36.9 3 36.9C1.61929 36.9 0.500002 38.0193 0.500002 39.4L5.5 39.4ZM0.500002 49.8C0.500002 51.1807 1.61929 52.3 3 52.3C4.38071 52.3 5.5 51.1807 5.5 49.8L0.500002 49.8ZM5.5 60.2C5.5 58.8193 4.38071 57.7 3 57.7C1.61929 57.7 0.500002 58.8193 0.500003 60.2L5.5 60.2ZM0.500003 70.6C0.500003 71.9807 1.61929 73.1 3 73.1C4.38071 73.1 5.5 71.9807 5.5 70.6L0.500003 70.6ZM5.5 81C5.5 79.6193 4.38072 78.5 3 78.5C1.61929 78.5 0.500003 79.6193 0.500003 81L5.5 81ZM0.500004 91.4C0.500004 92.7807 1.61929 93.9 3 93.9C4.38072 93.9 5.5 92.7807 5.5 91.4L0.500004 91.4ZM5.5 101.8C5.5 100.419 4.38072 99.3 3 99.3C1.61929 99.3 0.500004 100.419 0.500004 101.8L5.5 101.8ZM0.5 3L0.5 8.2L5.5 8.2L5.5 3L0.5 3ZM0.500001 18.6L0.500001 29L5.5 29L5.5 18.6L0.500001 18.6ZM0.500002 39.4L0.500002 49.8L5.5 49.8L5.5 39.4L0.500002 39.4ZM0.500003 60.2L0.500003 70.6L5.5 70.6L5.5 60.2L0.500003 60.2ZM0.500003 81L0.500004 91.4L5.5 91.4L5.5 81L0.500003 81ZM0.500004 101.8L0.500005 107L5.5 107L5.5 101.8L0.500004 101.8Z" fill="#161616"/>
</svg>
