<svg width="26" height="26" viewBox="0 0 26 26" fill="none" xmlns="http://www.w3.org/2000/svg">
<path d="M17.8 8.57886C19.7095 8.57886 21.5409 9.37735 22.8911 10.7987C24.2414 12.22 25 14.1477 25 16.1578V24.9999H20.2V16.1578C20.2 15.4878 19.9471 14.8452 19.497 14.3714C19.0469 13.8977 18.4365 13.6315 17.8 13.6315C17.1635 13.6315 16.553 13.8977 16.1029 14.3714C15.6528 14.8452 15.4 15.4878 15.4 16.1578V24.9999H10.6V16.1578C10.6 14.1477 11.3585 12.22 12.7088 10.7987C14.0591 9.37735 15.8904 8.57886 17.8 8.57886V8.57886Z" stroke="#161616" stroke-width="2" stroke-linecap="round" stroke-linejoin="round"/>
<path d="M5.8 9.84204H1V24.9999H5.8V9.84204Z" stroke="#161616" stroke-width="2" stroke-linecap="round" stroke-linejoin="round"/>
<path d="M3.4 6.05263C4.72548 6.05263 5.8 4.92156 5.8 3.52632C5.8 2.13107 4.72548 1 3.4 1C2.07452 1 1 2.13107 1 3.52632C1 4.92156 2.07452 6.05263 3.4 6.05263Z" stroke="#161616" stroke-width="2" stroke-linecap="round" stroke-linejoin="round"/>
</svg>
